<svg width="73" height="73" viewBox="0 0 73 73" fill="none" xmlns="http://www.w3.org/2000/svg">
<path d="M36.5 0C16.3428 0 0 16.3428 0 36.5C0 56.6595 16.3428 73 36.5 73C56.6572 73 73 56.6595 73 36.5C72.9998 16.3428 56.6569 0 36.5 0ZM46.7243 64.306C46.5143 61.4499 46.2795 57.9116 46.2657 56.479C46.1745 55.3795 46.0558 52.5827 43.4006 50.7965C53.9421 49.9137 58.9586 44.0874 59.3191 36.3882C59.6203 32.0038 57.8773 28.1483 54.7818 25.0368C54.9392 21.7086 54.6813 17.7641 54.4671 16.0306C52.0901 15.3462 46.5466 18.2731 44.9975 19.5255C41.7307 18.257 33.7351 17.8122 28.876 19.5255C25.4312 17.1028 21.5098 15.6063 19.3724 16.0238C17.399 20.397 18.6675 24.5306 19.0529 25.0233C16.5115 27.3457 12.9664 30.2041 13.9292 36.1923C15.4735 44.9727 21.6512 49.7088 31.5973 50.8675C29.4759 51.301 29.1176 52.8842 28.9396 53.5708C22.2601 56.3264 20.3509 51.869 19.5067 50.7078C16.7031 47.238 14.1868 48.2441 14.0317 48.2987C13.8811 48.3534 13.7671 48.5724 13.7831 48.6774C13.9244 49.4256 15.4507 50.1854 15.5259 50.2468C17.595 51.7889 18.3615 54.5743 18.8336 55.3682C21.8015 60.2478 28.7001 58.2243 28.7662 58.2654C28.7708 58.6919 28.7184 62.2828 28.6773 65.0773C16.0987 61.6416 6.84369 50.1668 6.84369 36.5C6.84369 20.1206 20.1206 6.84394 36.4997 6.84394C52.8789 6.84394 66.1561 20.1206 66.1561 36.5C66.1561 49.2818 58.0577 60.1381 46.7243 64.306Z" fill="white"/>
</svg>
