<svg width="200" height="211" viewBox="0 0 200 211" fill="none" xmlns="http://www.w3.org/2000/svg">
<rect x="5" y="16" width="190" height="190" rx="10" fill="black" stroke="white" stroke-width="10"/>
<path d="M119 151.304H171.48V158.088H119V151.304Z" fill="white"/>
<path d="M103.312 111C103.312 98.0833 99.9792 88.6875 93.3125 82.8125C86.6458 76.9375 76.9375 74 64.1875 74H49.6875V147.562H66C78.1667 147.562 87.4167 144.5 93.75 138.375C100.125 132.208 103.312 123.083 103.312 111ZM114.875 110.688C114.875 125.729 110.604 137.208 102.062 145.125C93.5208 153.042 81.6042 157 66.3125 157H38.875V64.5625H64.5C72.2083 64.5625 79.1042 65.4792 85.1875 67.3125C91.2708 69.1042 96.5417 71.8542 101 75.5625C105.5 79.2292 108.938 84.0417 111.312 90C113.688 95.9167 114.875 102.812 114.875 110.688Z" fill="white"/>
</svg>
