<svg width="76" height="76" viewBox="0 0 76 76" fill="none" xmlns="http://www.w3.org/2000/svg">
<g clip-path="url(#clip0_5_89)">
<path d="M46.7052 62.0067H5.30428V16.2992H68.2481V50.3625L73.5523 55.6668V4.91264C73.5523 2.47533 71.5694 0.492432 69.1323 0.492432H4.42002C1.98289 0.492432 0 2.47533 0 4.91264V62.8909C0 65.3281 1.98289 67.311 4.42002 67.311H49.2261C46.7676 63.8161 46.7052 62.0067 46.7052 62.0067ZM63.3944 7.91465C63.3944 7.01332 64.1251 6.28265 65.0264 6.28265H66.6582C67.5598 6.28265 68.2903 7.01332 68.2903 7.91465V9.76439C68.2903 10.6657 67.5596 11.3964 66.6582 11.3964H65.0264C64.1247 11.3964 63.3944 10.6657 63.3944 9.76439V7.91465ZM55.8055 7.91465C55.8055 7.01332 56.5362 6.28265 57.4373 6.28265H59.0695C59.9712 6.28265 60.7015 7.01332 60.7015 7.91465V9.76439C60.7015 10.6657 59.9708 11.3964 59.0695 11.3964H57.4373C56.536 11.3964 55.8055 10.6657 55.8055 9.76439V7.91465ZM48.2164 7.91465C48.2164 7.01332 48.9472 6.28265 49.8484 6.28265H51.4804C52.3819 6.28265 53.1126 7.01332 53.1126 7.91465V9.76439C53.1126 10.6657 52.3819 11.3964 51.4804 11.3964H49.8484C48.9472 11.3964 48.2164 10.6657 48.2164 9.76439V7.91465Z" fill="white"/>
<path d="M73.6305 60.4245L65.9103 52.7041C64.1677 50.9616 61.8225 50.1824 59.5391 50.3622C59.7188 48.0789 58.9397 45.7339 57.1973 43.991L49.4771 36.2708C46.3173 33.1115 41.1771 33.1116 38.0176 36.2708L36.7631 37.5251C33.6038 40.6843 33.6038 45.8248 36.7631 48.9844L44.4835 56.7044C46.2264 58.4472 48.5714 59.2261 50.8546 59.0466C50.6749 61.3298 51.4541 63.675 53.1968 65.4178L60.917 73.1378C64.0762 76.2972 69.2167 76.2972 72.3761 73.1378L73.6304 71.8835C76.7899 68.7242 76.7899 63.5836 73.6305 60.4245ZM49.1864 51.4219L52.3862 54.6219C50.757 55.5921 48.6132 55.3771 47.2127 53.9769L39.4923 46.2565C37.8374 44.602 37.8374 41.9089 39.4923 40.254L40.7465 38.9998C42.4012 37.3449 45.0942 37.3449 46.7487 38.9998L54.4691 46.72C55.87 48.1207 56.0844 50.2641 55.114 51.8937L51.9142 48.6937C51.1604 47.9401 49.9394 47.9401 49.1858 48.6937C48.4326 49.4468 48.4326 50.6683 49.1864 51.4219ZM70.9022 69.1552L69.6479 70.4095C67.993 72.0643 65.3004 72.0643 63.6456 70.4097L55.9254 62.6894C54.5248 61.2887 54.3099 59.1453 55.2802 57.5159L58.4803 60.7157C59.2338 61.4695 60.4549 61.4695 61.2086 60.7157C61.962 59.9622 61.962 58.7409 61.2086 57.9874L58.0086 54.7873C59.638 53.817 61.7816 54.0321 63.1827 55.4325L70.9027 63.1527C72.5571 64.8077 72.5571 67.5003 70.9022 69.1552Z" fill="white"/>
</g>
<defs>
<clipPath id="clip0_5_89">
<rect width="76" height="76" fill="white"/>
</clipPath>
</defs>
</svg>
